<svg t="1776580882983" viewBox="0 0 1024 1024" version="1.1" xmlns="http://www.w3.org/2000/svg" p-id="11617" width="200" height="200">
<path d="M535.247832 841.440458h63.953543L844.707087 699.488825 629.207412 572.403286l-154.118358 84.62915 60.158778 184.408022z" fill="#D9CFC1" fill-opacity=".3" p-id="11618"></path>
<path d="M300.55916 645.139561l11.354957-6.62128 15.550716 8.919656-11.354957 6.62128-15.550716-8.919656z" fill="#EFECF8" p-id="11619"></path>
<path d="M329.900134 640.132034l11.354957-6.621279-11.628806 19.061852-11.491882 6.758205 11.765731-19.198778z" fill="#C5BEED" p-id="11620"></path>
<path d="M356.932951 651.76084l11.491882-6.621279v3.92191l-11.491882 6.758204v-4.058835z" fill="#989BE0" p-id="11621"></path>
<path d="M327.728902 634.997364l11.491881-6.62128 29.20405 16.763477-11.491882 6.621279-29.204049-16.763476z" fill="#EFECF8" p-id="11622"></path>
<path d="M356.932951 651.76084v4.058835l-27.032817-15.687641-11.765731 19.198778-17.575243-10.269341v-3.92191l15.550716 8.919656 11.619026-19.061853 29.204049 16.763476z" fill="#989BE0" p-id="11623"></path>
<path d="M343.005769 620.943037l11.491881-6.63106 15.550717 8.929437-11.491882 6.621279-15.550716-8.919656z" fill="#EFECF8" p-id="11624"></path>
<path d="M372.346743 615.935511l11.491882-6.62128-11.765731 19.061853-11.491882 6.62128 11.765731-19.061853z" fill="#C5BEED" p-id="11625"></path>
<path d="M399.389341 627.564317l11.491882-6.62128v3.91213l-11.491882 6.767985v-4.058835z" fill="#989BE0" p-id="11626"></path>
<path d="M370.322216 610.80084l11.354957-6.758204 29.20405 16.900401-11.491882 6.62128-29.067125-16.763477z" fill="#EFECF8" p-id="11627"></path>
<path d="M399.389341 627.564317v4.058835l-27.042598-15.687641-11.765731 19.061853-17.575243-10.142197v-3.91213l15.550716 8.919656 11.765731-19.061853 29.067125 16.763477z" fill="#989BE0" p-id="11628"></path>
<path d="M383.7017 596.599809l11.491882-6.62128 15.550716 9.056581-11.491882 6.63106-15.550716-9.066361z" fill="#EFECF8" p-id="11629"></path>
<path d="M413.042674 591.738988l11.482102-6.758205-11.755951 19.198778-11.354957 6.621279 11.628806-19.061852z" fill="#C5BEED" p-id="11630"></path>
<path d="M440.075492 603.367794l11.491881-6.63106v3.92191l-11.491881 6.62128v-3.91213z" fill="#989BE0" p-id="11631"></path>
<path d="M411.008367 586.467393l11.354957-6.631061 29.204049 16.900402-11.491881 6.63106-29.067125-16.900401z" fill="#EFECF8" p-id="11632"></path>
<path d="M440.075492 603.367794v3.91213l-27.032818-15.540936-11.628806 19.061852-17.712168-10.142196V596.599809l15.550716 9.066361 11.755951-19.198777 29.067125 16.900401z" fill="#989BE0" p-id="11633"></path>
<path d="M258.513543 671.497536l11.491882-6.758205 15.413792 9.056581-11.354957 6.63106-15.550717-8.929436z" fill="#EFECF8" p-id="11634"></path>
<path d="M287.854518 666.49979l11.491881-6.62128-11.76573 19.061853-11.491882 6.62128 11.765731-19.061853z" fill="#C5BEED" p-id="11635"></path>
<path d="M314.887335 678.128596l11.491882-6.63106v3.92191l-11.491882 6.63106v-3.92191z" fill="#989BE0" p-id="11636"></path>
<path d="M285.693066 661.228195l11.482101-6.63106 29.20405 16.900401-11.491882 6.63106-29.194269-16.900401z" fill="#EFECF8" p-id="11637"></path>
<path d="M314.887335 678.128596v3.92191l-27.032817-15.550716-11.765731 19.061853-17.575244-10.142197v-3.92191l15.550717 8.929436 11.628806-19.198777 29.194269 16.900401z" fill="#989BE0" p-id="11638"></path>
<path d="M428.994384 571.053601l11.491882-6.62128 15.413791 8.919656-11.364737 6.758204-15.540936-9.05658z" fill="#EFECF8" p-id="11639"></path>
<path d="M458.325578 566.182999l11.491881-6.758204-11.75595 19.198777-11.491881 6.62128 11.75595-19.061853z" fill="#C5BEED" p-id="11640"></path>
<path d="M485.368176 577.811805l11.491881-6.62128v3.921911l-11.491881 6.621279v-3.92191z" fill="#989BE0" p-id="11641"></path>
<path d="M456.164126 560.911404l11.491882-6.62128 29.204049 16.900401-11.491881 6.62128-29.20405-16.900401z" fill="#EFECF8" p-id="11642"></path>
<path d="M485.368176 577.811805v3.92191l-27.042598-15.550716-11.75595 19.061853-17.575244-10.132416v-4.058835l15.540936 9.05658 11.628806-19.198777 29.20405 16.900401z" fill="#989BE0" p-id="11643"></path>
<path d="M472.526609 546.446304l11.354957-6.62128 15.540936 8.919656-11.491881 6.62128-15.404012-8.919656z" fill="#EFECF8" p-id="11644"></path>
<path d="M501.857803 541.448558l11.354957-6.63106-11.619026 19.061853-11.491881 6.63106 11.75595-19.061853z" fill="#C5BEED" p-id="11645"></path>
<path d="M528.900401 553.077364l11.354957-6.63106v3.92191l-11.354957 6.62128v-3.91213z" fill="#989BE0" p-id="11646"></path>
<path d="M499.696351 536.304107l11.491882-6.758204 29.067125 16.900401-11.354957 6.63106-29.20405-16.773257z" fill="#EFECF8" p-id="11647"></path>
<path d="M528.900401 553.077364v3.91213l-27.042598-15.540936-11.75595 19.061853-17.575244-10.142197v-3.92191l15.404012 8.929436 11.76573-19.071633 29.20405 16.773257z" fill="#989BE0" p-id="11648"></path>
<path d="M766.298223 645.677479l-11.354957-6.62128-15.550716 8.919656 11.491882 6.758204 15.413791-9.05658z" fill="#EFECF8" p-id="11649"></path>
<path d="M736.957249 640.679733l-11.354957-6.631061 11.628806 19.198778 11.491882 6.63106-11.765731-19.198777z" fill="#C5BEED" p-id="11650"></path>
<path d="M709.924432 652.435683l-11.354957-6.758204v4.058834l11.354957 6.62128v-3.92191z" fill="#989BE0" p-id="11651"></path>
<path d="M739.128481 635.535282l-11.491881-6.62128-29.067125 16.763477 11.354957 6.758204 29.204049-16.900401z" fill="#EFECF8" p-id="11652"></path>
<path d="M709.924432 652.435683v3.92191l27.032817-15.67786 11.765731 19.198777 17.575243-10.142197v-4.058834l-15.413791 9.05658-11.755951-19.198777-29.204049 16.900401z" fill="#989BE0" p-id="11653"></path>
<path d="M723.851614 621.480955l-11.491881-6.63106-15.413792 8.929436 11.354957 6.62128 15.550716-8.919656z" fill="#EFECF8" p-id="11654"></path>
<path d="M694.51064 616.473429l-11.491882-6.62128 11.765731 19.198777 11.482101 6.62128-11.75595-19.198777z" fill="#C5BEED" p-id="11655"></path>
<path d="M667.468042 628.23916l-11.491882-6.758205v4.058835l11.491882 6.62128v-3.92191z" fill="#989BE0" p-id="11656"></path>
<path d="M696.672092 611.338758l-11.491882-6.621279-29.20405 16.763476 11.491882 6.758205 29.20405-16.900402z" fill="#EFECF8" p-id="11657"></path>
<path d="M667.468042 628.23916v3.92191l27.042598-15.687641 11.75595 19.198777 17.585024-10.132416v-4.058835l-15.550716 8.919656-11.628806-19.061853-29.20405 16.900402z" fill="#989BE0" p-id="11658"></path>
<path d="M683.155683 597.284432l-11.491882-6.63106-15.550716 8.919656 11.491882 6.63106 15.550716-8.919656z" fill="#EFECF8" p-id="11659"></path>
<path d="M653.814709 592.276905l-11.491882-6.621279 11.765731 19.061853 11.491881 6.758204L653.814709 592.276905z" fill="#C5BEED" p-id="11660"></path>
<path d="M626.781891 603.905712l-11.491881-6.62128v3.91213l11.491881 6.767984v-4.058834z" fill="#989BE0" p-id="11661"></path>
<path d="M655.849016 587.142235l-11.364737-6.63106-29.194269 16.773257 11.491881 6.62128 29.067125-16.763477z" fill="#EFECF8" p-id="11662"></path>
<path d="M626.781891 603.905712v4.058834L653.814709 592.276905l11.76573 19.198778L683.155683 601.196562v-3.91213l-15.550716 8.919656-11.755951-19.061853-29.067125 16.763477z" fill="#989BE0" p-id="11663"></path>
<path d="M808.34384 672.045234l-11.491882-6.63106-15.413792 8.929436 11.354957 6.62128 15.550717-8.919656z" fill="#EFECF8" p-id="11664"></path>
<path d="M779.002865 667.037708l-11.354957-6.62128 11.628806 19.061853 11.491882 6.758204L779.002865 667.037708z" fill="#C5BEED" p-id="11665"></path>
<path d="M751.970048 678.666514l-11.491882-6.62128v4.049054l11.491882 6.631061v-4.058835z" fill="#989BE0" p-id="11666"></path>
<path d="M781.164317 661.903037L769.672436 655.281757l-29.19427 16.763477 11.491882 6.62128 29.194269-16.763477z" fill="#EFECF8" p-id="11667"></path>
<path d="M751.970048 678.666514v4.058835L779.002865 667.037708l11.765731 19.198777L808.34384 675.957364v-3.91213l-15.550717 8.919656-11.628806-19.061853-29.194269 16.763477z" fill="#989BE0" p-id="11668"></path>
<path d="M637.862999 571.728443l-11.354957-6.62128-15.550716 8.919656 11.354957 6.62128 15.550716-8.919656z" fill="#EFECF8" p-id="11669"></path>
<path d="M608.531805 566.730697l-11.364737-6.63106 11.628806 19.061853 11.491881 6.63106-11.75595-19.061853z" fill="#C5BEED" p-id="11670"></path>
<path d="M581.489207 578.349723l-11.491881-6.62128v3.92191l11.491881 6.62128v-3.92191z" fill="#989BE0" p-id="11671"></path>
<path d="M610.693257 561.586246l-11.491882-6.758204-29.204049 16.900401 11.491881 6.62128 29.20405-16.763477z" fill="#EFECF8" p-id="11672"></path>
<path d="M581.489207 578.349723v3.92191l27.042598-15.540936 11.75595 19.061853 17.575244-10.142197v-3.92191l-15.550716 8.919656-11.619026-19.061853-29.20405 16.763477z" fill="#989BE0" p-id="11673"></path>
<path d="M594.330774 546.984222l-11.354957-6.62128-15.550717 8.919656 11.491882 6.63106 15.413792-8.929436z" fill="#EFECF8" p-id="11674"></path>
<path d="M565.126724 541.986476l-11.482101-6.62128 11.75595 19.188997 11.354957 6.63106-11.628806-19.198777z" fill="#C5BEED" p-id="11675"></path>
<path d="M537.956982 553.615282l-11.354957-6.63106v4.058834l11.354957 6.62128v-4.049054z" fill="#989BE0" p-id="11676"></path>
<path d="M567.161032 536.851805l-11.491882-6.63106-29.067125 16.763477 11.354957 6.63106 29.20405-16.763477z" fill="#EFECF8" p-id="11677"></path>
<path d="M537.956982 553.615282v4.049054l27.169742-15.67786 11.628806 19.198777 17.712168-10.279121-0.136924-3.92191-15.413792 8.929436-11.75595-19.061853-29.20405 16.763477z" fill="#989BE0" p-id="11678"></path>
<path d="M780.626399 671.63446l-0.136924 27.306667-245.241643 142.499331 0.136924-27.316447 245.241643-142.489551z" fill="#1380FD" p-id="11679"></path>
<path d="M535.384756 814.124011l-0.136924 27.316447-246.855396-142.499331 0.136924-27.306667 246.855396 142.489551z" fill="#1462FC" p-id="11680"></path>
<path d="M780.626399 671.63446L535.384756 814.124011l-246.855396-142.489551 245.231863-142.626475 246.865176 142.626475z" fill="#05A1FF" p-id="11681"></path>
<path d="M721.817307 664.602407l-0.136925 13.663114-186.559694 108.551824v-13.653334l186.696619-108.561604z" fill="#E0DDFA" p-id="11682"></path>
<path d="M535.120688 773.164011v13.653334L347.201528 678.392665v-13.790258l187.91916 108.561604z" fill="#D2CBF6" p-id="11683"></path>
<path d="M721.817307 664.602407l-186.696619 108.561604-187.91916-108.561604 186.696619-108.42468 187.91916 108.42468z" fill="#FFFFFF" p-id="11684"></path>
<path d="M268.381891 742.209284l-11.491881-6.631061 11.628806-32.578261 11.354957 6.758204-11.491882 32.451118z" fill="#D2CBF6" p-id="11685"></path>
<path d="M279.873773 709.758166l-11.354957-6.758204 29.067125-16.763477 11.491881 6.62128-29.204049 16.900401zM252.831175 751.265864l-11.482101-6.758204 15.540936-8.929437 11.491881 6.631061-15.550716 9.05658z" fill="#EFECF8" p-id="11686"></path>
<path d="M252.831175 755.187775l-11.482101-6.631061v-4.049054l11.482101 6.758204v3.921911z" fill="#C5BEED" p-id="11687"></path>
<path d="M309.077822 692.857765v3.92191l-27.042598 15.687641-11.619025 32.578262-17.585024 10.142197v-3.921911l15.550716-9.05658 11.491882-32.451118 29.204049-16.900401z" fill="#989BE0" p-id="11688"></path>
<path d="M311.376199 766.943725l-11.491882-6.758204 11.628806-32.578262 11.491882 6.758204-11.628806 32.578262z" fill="#D2CBF6" p-id="11689"></path>
<path d="M323.005005 734.365463l-11.491882-6.758204 29.19427-16.763477 11.364737 6.62128-29.067125 16.900401zM295.825482 775.873161l-11.354957-6.63106 15.413792-9.05658 11.491882 6.758204-15.550717 8.929436z" fill="#EFECF8" p-id="11690"></path>
<path d="M295.825482 779.785291l-11.354957-6.62128v-3.92191l11.354957 6.63106v3.91213z" fill="#C5BEED" p-id="11691"></path>
<path d="M352.07213 717.465062v3.92191l-27.042598 15.677861-11.491882 32.588042-17.712168 10.132416v-3.91213l15.550717-8.929436 11.628806-32.578262 29.067125-16.900401z" fill="#989BE0" p-id="11692"></path>
<path d="M354.096657 791.824871l-11.491881-6.758204 11.628806-32.451118 11.354957 6.62128-11.491882 32.588042z" fill="#D2CBF6" p-id="11693"></path>
<path d="M365.588539 759.236829l-11.354957-6.62128 29.067125-16.900401 11.491881 6.62128-29.204049 16.900401zM338.545941 800.744527l-11.491882-6.62128 15.550717-9.05658 11.491881 6.758204-15.550716 8.919656z" fill="#EFECF8" p-id="11694"></path>
<path d="M338.545941 804.666437l-11.491882-6.621279v-3.921911l11.491882 6.62128v3.92191z" fill="#C5BEED" p-id="11695"></path>
<path d="M394.792588 742.336428v4.058835l-27.042598 15.550716-11.628806 32.578262-17.575243 10.142196v-3.92191l15.550716-8.919656 11.491882-32.588042 29.204049-16.900401z" fill="#989BE0" p-id="11696"></path>
<path d="M396.680191 816.432168l-11.354957-6.63106 11.491882-32.578262 11.491881 6.62128-11.628806 32.588042z" fill="#D2CBF6" p-id="11697"></path>
<path d="M408.308997 783.844126l-11.491881-6.62128 29.204049-16.763476 11.491882 6.621279-29.20405 16.763477zM381.266399 825.488749l-11.491881-6.758205 15.550716-8.929436 11.354957 6.63106-15.413792 9.056581z" fill="#EFECF8" p-id="11698"></path>
<path d="M381.266399 829.400879l-11.491881-6.62128v-4.049055l11.491881 6.758205v3.91213z" fill="#C5BEED" p-id="11699"></path>
<path d="M437.513047 767.080649v3.921911l-27.179523 15.67786-11.491881 32.588042-17.575244 10.132417v-3.91213l15.413792-9.056581 11.628806-32.588042 29.20405-16.763477z" fill="#989BE0" p-id="11700"></path>
<path d="M439.938567 841.029685l-11.491881-6.62128 11.628806-32.578262 11.354957 6.62128-11.491882 32.578262z" fill="#D2CBF6" p-id="11701"></path>
<path d="M451.430449 808.451423l-11.354957-6.62128 29.20405-16.900401 11.354957 6.62128-29.20405 16.900401zM424.397631 849.949341l-11.491881-6.62128 15.540936-8.919656 11.491881 6.62128-15.540936 8.919656z" fill="#EFECF8" p-id="11702"></path>
<path d="M424.397631 853.871251l-11.354957-6.62128-0.136924-3.92191 11.491881 6.62128v3.92191z" fill="#C5BEED" p-id="11703"></path>
<path d="M480.634499 791.551022v4.058835l-27.032818 15.540936-11.491882 32.588042-17.712168 10.132416v-3.92191l15.540936-8.919656 11.491882-32.578262 29.20405-16.900401z" fill="#989BE0" p-id="11704"></path>
<path d="M482.258032 865.773906l-11.354957-6.621279 11.491882-32.588042 11.491882 6.621279-11.628807 32.588042z" fill="#D2CBF6" p-id="11705"></path>
<path d="M493.886839 833.185864l-11.491882-6.621279 29.194269-16.900402 11.501662 6.631061-29.204049 16.89062zM466.844241 874.693563l-11.491882-6.62128 15.550716-8.919656 11.354957 6.621279-15.413791 8.919657z" fill="#EFECF8" p-id="11706"></path>
<path d="M466.844241 878.615473l-11.491882-6.62128v-3.92191l11.491882 6.62128v3.92191z" fill="#C5BEED" p-id="11707"></path>
<path d="M523.090888 816.295244v4.049054l-27.042598 15.550716-11.628806 32.578262-17.575243 10.142197v-3.92191l15.413791-8.919657 11.628807-32.588042 29.204049-16.89062z" fill="#989BE0" p-id="11708"></path>
<path d="M801.585635 742.747202l11.354957-6.62128-11.491881-32.588042-11.491882 6.63106 11.628806 32.578262z" fill="#D2CBF6" p-id="11709"></path>
<path d="M789.956829 710.16894l11.491882-6.63106-29.20405-16.900401-11.491882 6.63106 29.20405 16.900401zM817.126571 751.666858l11.354957-6.62128-15.540936-8.919656-11.354957 6.62128 15.540936 8.919656z" fill="#EFECF8" p-id="11710"></path>
<path d="M816.989647 755.588768l11.491881-6.62128v-3.92191l-11.354957 6.62128-0.136924 3.92191z" fill="#C5BEED" p-id="11711"></path>
<path d="M760.752779 693.268539v4.058834l27.169742 15.540936 11.491882 32.578262 17.575244 10.142197 0.136924-3.92191-15.540936-8.919656-11.628806-32.578262-29.20405-16.900401z" fill="#989BE0" p-id="11712"></path>
<path d="M758.454403 767.354499l11.491882-6.631061-11.491882-32.578261-11.491882 6.62128 11.491882 32.588042z" fill="#D2CBF6" p-id="11713"></path>
<path d="M746.962521 734.766457l11.491882-6.62128-29.20405-16.900401-11.491881 6.63106 29.204049 16.890621zM774.005119 776.274155l11.491882-6.62128-15.550716-8.929437-11.491882 6.631061 15.550716 8.919656z" fill="#EFECF8" p-id="11714"></path>
<path d="M774.005119 780.332989l11.491882-6.758204v-3.92191l-11.491882 6.62128v4.058834z" fill="#C5BEED" p-id="11715"></path>
<path d="M717.758472 717.875836v4.049054l27.042598 15.550716 11.628806 32.578262 17.575243 10.279121v-4.058834l-15.550716-8.919656-11.491882-32.588042L717.758472 717.875836z" fill="#989BE0" p-id="11716"></path>
<path d="M715.870869 792.225864l11.354957-6.621279-11.491881-32.578262-11.491882 6.62128 11.628806 32.578261z" fill="#D2CBF6" p-id="11717"></path>
<path d="M704.242063 759.647603l11.491882-6.62128-29.20405-16.900401-11.354957 6.62128 29.067125 16.900401zM731.421585 801.145521l11.354958-6.62128-15.550717-8.919656-11.354957 6.621279 15.550716 8.919657z" fill="#EFECF8" p-id="11718"></path>
<path d="M731.421585 805.204355l11.354958-6.758204v-3.92191l-11.354958 6.62128v4.058834z" fill="#C5BEED" p-id="11719"></path>
<path d="M675.174938 742.747202l-0.136925 4.058834 27.179523 15.540936 11.491881 32.588042 17.712168 10.269341v-4.058834l-15.550716-8.919657-11.628806-32.578261-29.067125-16.900401z" fill="#989BE0" p-id="11720"></path>
<path d="M673.150411 816.970086l11.491881-6.758204-11.628806-32.451118-11.354957 6.62128 11.491882 32.588042z" fill="#D2CBF6" p-id="11721"></path>
<path d="M661.658529 784.382044l11.354957-6.62128-29.067125-16.900401-11.491882 6.63106L661.658529 784.382044zM688.691347 825.889742l11.491881-6.62128-15.540936-9.05658-11.491881 6.758204 15.540936 8.919656z" fill="#EFECF8" p-id="11722"></path>
<path d="M688.691347 829.811652l11.491881-6.62128v-3.92191l-11.491881 6.62128v3.92191z" fill="#C5BEED" p-id="11723"></path>
<path d="M632.454479 767.491423v4.049055l27.042598 15.550716 11.628806 32.578262 17.565464 10.142196v-3.92191l-15.540936-8.919656L661.658529 784.382044l-29.20405-16.890621z" fill="#989BE0" p-id="11724"></path>
<path d="M630.019179 841.440458l11.354957-6.63106-11.482102-32.578261-11.491881 6.621279 11.619026 32.588042z" fill="#D2CBF6" p-id="11725"></path>
<path d="M618.400153 808.852416l11.491881-6.621279-29.204049-16.900402-11.491882 6.758205 29.20405 16.763476zM645.43297 850.360115l11.491882-6.62128-15.550716-8.929437-11.354957 6.63106 15.413791 8.919657z" fill="#EFECF8" p-id="11726"></path>
<path d="M645.43297 854.418949l11.491882-6.63106v-4.049054l-11.491882 6.62128v4.058834z" fill="#C5BEED" p-id="11727"></path>
<path d="M589.196103 792.08894v3.92191l27.032818 15.687641 11.628806 32.441337 17.575243 10.279121v-4.058834l-15.413791-8.919657-11.619026-32.588042-29.20405-16.763476z" fill="#989BE0" p-id="11728"></path>
<path d="M587.572569 866.1749l11.491882-6.62128-11.628806-32.578262-11.354957 6.62128 11.491881 32.578262z" fill="#D2CBF6" p-id="11729"></path>
<path d="M576.080688 833.596638l11.354957-6.62128-29.067125-16.900401-11.491882 6.758204 29.20405 16.763477zM603.123286 875.104336l11.491881-6.63106-15.550716-8.919656-11.491882 6.62128 15.550717 8.929436z" fill="#EFECF8" p-id="11730"></path>
<path d="M603.123286 879.153391l11.491881-6.62128v-4.058835l-11.491881 6.63106v4.049055z" fill="#C5BEED" p-id="11731"></path>
<path d="M546.876638 816.833161v3.921911l27.042598 15.67786 11.491881 32.451118 17.712169 10.269341v-4.049055l-15.550717-8.929436-11.491881-32.578262-29.20405-16.763477z" fill="#989BE0" p-id="11732"></path>
<path d="M412.093983 664.602407l9.056581 5.271595 112.884508 65.166304V593.62659l-121.941089 70.975817z" fill="#E0DDFA" p-id="11733"></path>
<path d="M534.035072 593.62659v141.413716l0.811767 0.537917 113.021432-65.567297 9.056581-5.408519-122.88978-70.975817z" fill="#D2CBF6" p-id="11734"></path>
<path d="M647.868271 670.010926L534.846839 735.578223l-113.696275-65.704221 112.884508-65.567297 113.833199 65.704221z" fill="#05A1FF" p-id="11735"></path>
<path d="M647.868271 670.010926L534.846839 735.578223l-113.696275-65.704221 112.884508-65.567297 113.833199 65.704221z" fill="#05A1FF" p-id="11736"></path>
<path d="M595.543534 660.142579v6.895129l-13.379484 7.706896v-6.758205l13.379484-7.84382z" fill="#E0DDFA" p-id="11737"></path>
<path d="M582.16405 667.986399v6.758205l-59.894709-34.475645v-6.895129l59.894709 34.612569z" fill="#D2CBF6" p-id="11738"></path>
<path d="M595.543534 660.142579l-13.379484 7.84382-59.894709-34.612569 13.389265-7.83404 59.884928 34.602789z" fill="#F8F8FC" p-id="11739"></path>
<path d="M528.900401 671.497536v6.895129c-3.520917-0.948691-6.895129-1.887603-10.142197-2.69937-3.247068-0.811767-6.220287-1.623534-8.919656-2.298376-2.70915-0.674842-5.13467-1.349685-7.168978-1.760459-2.024527-0.537918-3.648061-0.948691-4.860821-1.21276v-6.895129c1.21276 0.264069 2.836294 0.674842 4.997746 1.21276 2.024527 0.547698 4.459828 1.085616 7.168978 1.760459 2.69937 0.674842 5.672588 1.486609 8.919656 2.298376 3.247068 0.811767 6.62128 1.760458 10.142197 2.69937h-0.136925z" fill="#1462FC" p-id="11740"></path>
<path d="M528.900401 671.497536v6.895129c-3.520917-0.948691-6.895129-1.887603-10.142197-2.69937-3.247068-0.811767-6.220287-1.623534-8.919656-2.298376-2.70915-0.674842-5.13467-1.349685-7.168978-1.760459-2.024527-0.537918-3.648061-0.948691-4.860821-1.21276v-6.895129c1.21276 0.264069 2.836294 0.674842 4.997746 1.21276 2.024527 0.547698 4.459828 1.085616 7.168978 1.760459 2.69937 0.674842 5.672588 1.486609 8.919656 2.298376 3.247068 0.811767 6.62128 1.760458 10.142197 2.69937h-0.136925z" fill="#D2CBF6" p-id="11741"></path>
<path d="M551.610315 678.265521v6.885348c-2.973219-0.801987-5.946437-1.613754-8.782731-2.42552v-6.895129c2.973219 0.811767 5.946437 1.613754 8.782731 2.435301z" fill="#1462FC" p-id="11742"></path>
<path d="M551.610315 678.265521v6.885348c-2.973219-0.801987-5.946437-1.613754-8.782731-2.42552v-6.895129c2.973219 0.811767 5.946437 1.613754 8.782731 2.435301z" fill="#D2CBF6" p-id="11743"></path>
<path d="M560.128978 680.691041v6.895129c-2.69937-0.811767-5.545444-1.623534-8.518663-2.435301v-6.885348c2.973219 0.801987 5.819293 1.613754 8.518663 2.42552z" fill="#1462FC" p-id="11744"></path>
<path d="M560.128978 680.691041v6.895129c-2.69937-0.811767-5.545444-1.623534-8.518663-2.435301v-6.885348c2.973219 0.801987 5.819293 1.613754 8.518663 2.42552z" fill="#D2CBF6" p-id="11745"></path>
<path d="M574.457154 672.446227v6.758205l-14.328176 8.381738v-6.895129l14.328176-8.244814zM542.827584 675.83022v6.895129l-23.257613 13.379484v-6.758205l23.257613-13.516408z" fill="#E0DDFA" p-id="11746"></path>
<path d="M514.161452 707.45979v6.895129c-4.185979-4.997746-8.107889-9.731423-11.491882-14.054327-3.511137-4.332684-6.62128-8.381738-9.594498-12.303648a318.0366 318.0366 0 0 1-8.11767-11.227813c-2.425521-3.648061-4.723897-7.159198-6.895129-10.680115V659.193887c2.171232 3.520917 4.469608 7.168978 6.895129 10.680115 2.435301 3.657841 5.144451 7.305903 8.11767 11.227813 2.973219 3.92191 6.083362 7.970965 9.594498 12.303648 3.520917 4.322904 7.305903 9.056581 11.491882 14.054327z" fill="#1462FC" p-id="11747"></path>
<path d="M514.161452 707.45979v6.895129c-4.185979-4.997746-8.107889-9.731423-11.491882-14.054327-3.511137-4.332684-6.62128-8.381738-9.594498-12.303648a318.0366 318.0366 0 0 1-8.11767-11.227813c-2.425521-3.648061-4.723897-7.159198-6.895129-10.680115V659.193887c2.171232 3.520917 4.469608 7.168978 6.895129 10.680115 2.435301 3.657841 5.144451 7.305903 8.11767 11.227813 2.973219 3.92191 6.083362 7.970965 9.594498 12.303648 3.520917 4.322904 7.305903 9.056581 11.491882 14.054327z" fill="#D2CBF6" p-id="11748"></path>
<path d="M528.088634 699.351901v6.895129l-13.927182 7.970964v-6.758204l13.927182-8.107889z" fill="#E0DDFA" p-id="11749"></path>
<path d="M551.610315 678.265521c-2.973219-0.821547-5.946437-1.623534-8.782731-2.435301l-23.257613 13.516408c1.486609 1.760458 2.836294 3.374212 4.322904 5.134671 1.486609 1.760458 2.846074 3.383992 4.332684 4.870602l-13.927183 8.107889c-4.195759-4.997746-8.107889-9.731423-11.491881-14.054327-3.511137-4.332684-6.62128-8.381738-9.594499-12.303648a318.0366 318.0366 0 0 1-8.117669-11.227813c-2.435301-3.648061-4.733677-7.159198-6.895129-10.680115l12.714422-7.433047c6.083362 1.222541 12.293868 2.572225 18.514155 4.058835 6.220287 1.349685 12.714422 2.973219 19.472626 4.596753 6.758204 1.623534 13.927182 3.511137 21.360229 5.545444 7.433047 2.024527 15.540936 4.185979 24.333448 6.62128l-14.328175 8.381738c-2.70915-0.811767-5.545444-1.623534-8.518663-2.435301l-0.136925-0.264068z m-39.74724 3.100362l17.037326-9.868347c-3.520917-0.938911-6.895129-1.887603-10.142197-2.69937-3.247068-0.811767-6.220287-1.623534-8.919656-2.298376-2.70915-0.674842-5.13467-1.349685-7.168978-1.760459-2.024527-0.537918-3.648061-0.948691-4.860821-1.21276 0.537918 0.674842 1.349685 1.623534 2.288596 2.836294 0.948691 1.222541 2.034308 2.572225 3.247068 4.19576 1.222541 1.613754 2.572225 3.237287 4.058834 5.13467 1.486609 1.887603 2.973219 3.92191 4.596753 5.946438l-0.136925-0.27385z" fill="#F8F8FC" p-id="11750"></path>
<path d="M535.79553 949.728214L130.078319 715.440535l403.144986-234.287679 405.717211 234.287679-403.144986 234.287679zM140.758434 715.440535L535.79553 943.507927l392.327947-228.067392-395.037097-228.067393-392.327946 228.067393z" fill="#05A1FF" p-id="11751"></path>
<path d="M192.946246 748.693639l-30.015816 17.311175s-0.948691 0.264069-1.48661 0l-30.817803-17.712168L30.71022 805.879198l-9.32065 5.408519s-0.410774 0.136925-0.674842 0.136925c-0.547698 0-0.948691-0.273849-1.222541-0.674843-0.400993-0.674842-0.136925-1.486609 0.537918-1.897383l7.843821-4.596752 102.077249-58.936237s0.938911-0.273849 1.476829 0l30.827583 17.702388 27.854365-16.078854 2.836294 1.613753v0.136925zM434.940821 885.647526l-4.733677 2.69937-27.306666 15.824565s-0.948691 0.264069-1.48661 0l-30.827583-17.712168-38.798549 22.436065-2.836294 1.623534-58.946017 34.074651-8.518663 4.860822s-0.400993 0.136925-0.674842 0.136924c-0.537918 0-0.948691-0.273849-1.21276-0.674842-0.410774-0.674842-0.136925-1.486609 0.537917-1.897383l7.569972-4.322904 58.535243-33.800802 2.846075-1.623534 40.96-23.658605s0.948691-0.264069 1.486609 0l30.690659 17.712168 25.145215-14.4651 4.733677-2.69937 2.836294 1.623534v-0.136925zM341.51916 831.699255l-4.723897 2.70915-26.50468 15.276867s-0.938911 0.264069-1.48661 0l-30.817803-17.712168-39.610315 22.846839-2.846075 1.623534-56.647641 32.715186-9.995491 5.819293s-0.410774 0.127144-0.684623 0.127144c-0.537918 0-0.938911-0.264069-1.21276-0.674842-0.410774-0.674842-0.136925-1.486609 0.537917-1.887603l9.193506-5.271595 56.109723-32.451117 2.836294-1.623534 41.771767-24.059599s0.948691-0.273849 1.486609 0l30.690659 17.712168 24.470373-14.064107 4.733677-2.69937 2.836294 1.613754h-0.136924zM267.032206 788.714728l-4.733677 2.699369-100.316791 57.997326-7.569971 4.332684s-0.537918 0.127144-0.674842 0.127144c-0.537918 0-0.938911-0.264069-1.212761-0.674842-0.410774-0.674842-0.136925-1.486609 0.537918-1.887603l6.220287-3.648061 100.179866-57.870181 4.733677-2.69937 2.836294 1.623534zM469.279542 905.384222l-4.733678 2.699369-98.957325 57.195339-7.706896 4.459828s-0.537918 0.127144-0.674843 0.127145c-0.537918 0-0.948691-0.264069-1.22254-0.674843-0.400993-0.674842-0.127144-1.486609 0.547698-1.887603l6.210506-3.520916 98.967106-57.185559 4.733677-2.69937 2.836295 1.623534v-0.136924zM373.559503 850.086266l-4.723897 2.709149-66.789837 38.5247-2.836294 1.623534-30.289666 17.575243-7.970965 4.596753s-0.410774 0.136925-0.674842 0.136924c-0.547698 0-0.948691-0.273849-1.222541-0.674842-0.400993-0.674842-0.127144-1.486609 0.547699-1.897383l6.621279-3.784986 30.279886-17.438319 2.846074-1.623534 66.780058-38.524699 4.733677-2.70915 2.836294 1.623534-0.136925-0.136924z" fill="#05A1FF" p-id="11752"></path>
<path d="M372.072894 932.016046l-37.585788 21.634078-10.406266 5.946438-1.486609-2.435301 9.467354-5.40852 34.338721-19.736695-37.311939-21.634078-2.846075-1.623534-27.169742-15.677861-2.836294-1.623534-60.569551-35.013562-2.836294-1.623534-24.607297-14.191252 69.215358-40.422082 4.596752-2.846074 2.836295 1.623534-4.596753 2.846074-66.369284 38.798548 21.761223 12.567718 2.836294 1.623534 60.569551 35.013562 2.836294 1.623534 27.179523 15.687641 2.836294 1.613754 40.148233 23.257612zM29.771309 805.067431c4.185979 2.435301 4.185979 6.357211 0 8.792512-4.195759 2.435301-11.090888 2.435301-15.276868 0-4.195759-2.435301-4.195759-6.357211 0-8.792512 4.185979-2.435301 11.081108-2.435301 15.276868 0zM215.93001 800.881452s-0.273849 0.948691-0.674843 1.21276l-85.988615 49.615587-7.83404 4.596753s-0.410774 0.136925-0.674842 0.136925c-0.547698 0-0.948691-0.273849-1.222541-0.674843-0.400993-0.674842-0.136925-1.486609 0.537918-1.897383l6.494135-3.784985 85.167068-49.204814-31.62957-18.250086s-0.674842-0.674842-0.674842-1.222541c0-0.537918 0.264069-0.938911 0.674842-1.21276l31.228577-18.113161 4.733677-2.70915 2.836294 1.623533-4.733677 2.70915-30.553734 17.702388 31.63935 18.250086s0.674842 0.684623 0.674843 1.222541z" fill="#05A1FF" p-id="11753"></path>
<path d="M127.779943 850.633964c4.195759 2.435301 4.195759 6.347431 0 8.782731-4.185979 2.435301-11.081108 2.435301-15.276868 0-4.185979-2.435301-4.185979-6.347431 0-8.782731 4.195759-2.435301 11.090888-2.435301 15.276868 0zM487.803477 955.811576s-0.273849 0.948691-0.674843 1.21276L403.438395 1005.427163l-10.132416 5.809513s-0.410774 0.136925-0.684623 0.136925c-0.537918 0-0.938911-0.273849-1.21276-0.674843-0.400993-0.674842-0.136925-1.623534 0.537918-1.897383l8.792512-5.13467 82.868691-47.855129-31.62957-18.250086s-0.674842-0.674842-0.674842-1.222541c0-0.537918 0.264069-0.938911 0.674842-1.21276l29.605043-17.037326 4.733677-2.699369 2.836294 1.623534-4.733677 2.699369-28.9302 16.626552 31.63935 18.250086s0.674842 0.684623 0.674843 1.222541z" fill="#05A1FF" p-id="11754"></path>
<path d="M401.814862 1004.204623c4.195759 2.435301 4.195759 6.357211 0 8.792512-4.185979 2.435301-11.081108 2.435301-15.276868 0-4.185979-2.435301-4.185979-6.357211 0-8.792512 4.195759-2.425521 11.090888-2.425521 15.276868 0zM160.367985 848.198663c4.185979 2.435301 4.185979 6.347431 0 8.782731-4.195759 2.435301-11.090888 2.435301-15.276868 0-4.195759-2.435301-4.195759-6.347431 0-8.782731 4.185979-2.435301 11.081108-2.435301 15.276868 0zM176.583763 887.27106c4.195759 2.425521 4.195759 6.347431 0 8.782732-4.185979 2.435301-11.081108 2.435301-15.276867 0-4.185979-2.435301-4.185979-6.357211 0-8.782732 4.195759-2.435301 11.090888-2.435301 15.276867 0zM267.4332 909.707125c4.195759 2.435301 4.195759 6.357211 0 8.792512-4.185979 2.435301-11.081108 2.435301-15.276868 0-4.185979-2.435301-4.185979-6.357211 0-8.792512 4.195759-2.435301 11.090888-2.435301 15.276868 0zM267.843973 942.559236c4.185979 2.435301 4.185979 6.357211 0 8.792512-4.195759 2.435301-11.090888 2.435301-15.276867 0-4.195759-2.435301-4.195759-6.357211 0-8.792512 4.185979-2.435301 11.081108-2.435301 15.276867 0zM332.462579 952.02659c4.195759 2.435301 4.195759 6.347431 0 8.782732-4.185979 2.435301-11.081108 2.435301-15.276867 0-4.185979-2.435301-4.185979-6.347431 0-8.782732 4.195759-2.435301 11.090888-2.435301 15.276867 0zM364.365998 964.457383c4.195759 2.435301 4.195759 6.357211 0 8.792512-4.185979 2.435301-11.081108 2.435301-15.276867 0-4.185979-2.435301-4.185979-6.357211 0-8.792512 4.195759-2.425521 11.090888-2.425521 15.276867 0zM961.376581 846.712053s-0.674842 0.674842-1.212761 0.674843c-0.273849 0-0.537918 0-0.674842-0.136925l-8.655587-4.997746-85.167068-49.214594s-0.674842-0.674842-0.674843-1.21276c0-0.547698 0.264069-0.948691 0.674843-1.222541l31.62957-18.250085-28.392283-16.352703-4.723897-2.70915 2.836295-1.623534 4.733677 2.70915 29.067125 16.763476s0.674842 0.674842 0.674842 1.212761c0 0.547698-0.273849 0.948691-0.674842 1.22254l-31.639351 18.250086 84.902999 48.940745 6.895129 3.91213c0.674842 0.410774 0.948691 1.222541 0.537918 1.897383l-0.136924 0.136924zM666.930124 1017.055969s-0.674842 0.674842-1.21276 0.674843c-0.273849 0-0.547698 0-0.674843-0.136925l-8.391518-4.870601-85.440917-49.341739s-0.674842-0.674842-0.674842-1.22254c0-0.537918 0.273849-0.938911 0.674842-1.212761l31.63935-18.250086-27.854364-16.088634-4.723897-2.699369 2.836294-1.623534 4.733677 2.699369 28.519427 16.499408s0.674842 0.674842 0.674842 1.21276-0.264069 0.948691-0.674842 1.212761l-31.62957 18.250086 85.167068 49.214594 6.494135 3.784985c0.674842 0.410774 0.948691 1.222541 0.537918 1.897383zM812.128825 925.531691s-0.811767 0.674842-1.22254 0.674842c-0.264069 0-0.537918 0-0.674843-0.136925l-7.83404-4.596752-64.628386-37.311939s-0.674842-0.674842-0.674842-1.222541c0-0.537918 0.273849-0.938911 0.674842-1.21276l23.932455-13.790258-21.634078-12.704642-2.836295-1.623534-18.113161-10.680114-4.733677-2.70915 2.836294-1.623534 4.733677 2.70915 18.113162 10.680115 2.846074 1.623533 22.29914 13.115416s0.674842 0.674842 0.674843 1.21276-0.264069 0.948691-0.674843 1.21276l-23.922674 13.790258 65.019599 37.448864 5.40852 3.110143s0.948691 1.222541 0.547698 1.897383l-0.136925 0.136925zM929.610086 921.746705s-0.674842 0.674842-1.222541 0.674842c-0.264069 0-0.537918 0-0.674842-0.136924l-8.381738-4.870602-117.882254-68.139522s-0.674842-0.674842-0.674843-1.212761 0.264069-0.948691 0.674843-1.21276l43.258376-25.018071-44.88191-25.956981-4.733677-2.69937 2.836294-1.623534 4.733677 2.70915 45.693677 26.357975s0.684623 0.674842 0.684623 1.21276c0 0.547698-0.273849 0.948691-0.684623 1.222541l-43.258376 25.00829 117.618185 67.865674 6.484355 3.784985c0.674842 0.410774 0.948691 1.222541 0.547699 1.897383l-0.136925 0.136925zM803.072245 957.298185s-0.674842 0.674842-1.222541 0.674843c-0.264069 0-0.537918 0-0.674842-0.136925l-7.159198-4.185979-83.41639-48.128978-46.104451 26.631824s-0.938911 0.273849-1.486609 0l-48.940745-28.255358-4.733677-2.70915 2.846074-1.623534 4.733677 2.70915 46.769513 27.042598 46.104451-26.631824s0.948691-0.273849 1.48661 0l85.577841 49.478663 5.809513 3.374212c0.674842 0.410774 0.948691 1.222541 0.537918 1.897383l-0.127144-0.136925zM928.260401 844.139828s-0.674842 0.674842-1.22254 0.674842c-0.264069 0-0.537918 0-0.674843-0.136924l-8.107889-4.723897-97.470716-56.246647-4.733678-2.69937 2.836295-1.623534 4.733677 2.69937 97.607641 56.383572 6.484355 3.784985c0.674842 0.400993 0.948691 1.21276 0.547698 1.887603zM1003.559121 800.069685s-0.674842 0.674842-1.21276 0.674842c-0.273849 0-0.547698 0-0.674842-0.136924l-8.929437-5.134671-96.257956-55.562025-4.733677-2.70915 2.846074-1.623534 4.733678 2.70915 96.248175 55.562025 7.579752 4.459828c0.674842 0.410774 0.938911 1.222541 0.537918 1.897383l-0.136925-0.136924zM840.785177 894.029265s-0.811767 0.674842-1.212761 0.674842c-0.273849 0-0.537918 0-0.674842-0.136925l-8.792512-5.13467-74.623878-43.131232-2.836294-1.623534-18.38701-10.54319-4.733678-2.69937 2.836295-1.623534 4.733677 2.69937 18.38701 10.55297 2.836295 1.613754 74.359808 42.994307 7.706896 4.459829s0.948691 1.222541 0.537918 1.897383h-0.136924zM699.381242 976.360038s-0.684623 0.674842-1.222541 0.674843c-0.273849 0-0.537918 0-0.674842-0.136925l-8.244814-4.733677-96.66873-55.826094-4.723897-2.70915 2.836295-1.623534 4.733677 2.70915 96.932798 55.963019 6.62128 3.784985c0.674842 0.410774 0.948691 1.222541 0.537918 1.897383h-0.127144z" fill="#05A1FF" p-id="11755"></path>
<path d="M803.747087 818.319771l-45.556753 26.357975-2.846074 1.623534-12.430793 7.168978-2.846074 1.760458-57.048635 32.852111-8.518662 4.997746-1.48661-2.572225 7.569971-4.322904 56.647641-32.715186 2.836295-1.623534 12.440573-7.168978 2.836294-1.613754 42.720458-24.744221-18.523935-10.54319-4.723897-2.846075 2.836295-1.613753 4.733677 2.699369 21.360229 12.303649zM672.201719 1012.586361c4.195759 2.435301 4.195759 6.357211 0 8.792512-4.185979 2.435301-11.081108 2.435301-15.276867 0-4.185979-2.435301-4.185979-6.357211 0-8.792512 4.195759-2.425521 11.090888-2.425521 15.276867 0zM705.454823 971.626361c4.195759 2.435301 4.195759 6.357211 0 8.792512-4.185979 2.425521-11.081108 2.425521-15.267087 0-4.195759-2.435301-4.195759-6.357211 0-8.792512 4.185979-2.435301 11.081108-2.435301 15.267087 0z" fill="#05A1FF" p-id="11756"></path>
<path d="M680.720382 886.185444c4.185979 2.435301 4.185979 6.357211 0 8.792512-4.195759 2.425521-11.090888 2.425521-15.276867 0-4.185979-2.435301-4.185979-6.357211 0-8.792512s11.081108-2.435301 15.276867 0zM810.505291 952.838357c4.185979 2.435301 4.185979 6.347431 0 8.782732-4.195759 2.435301-11.090888 2.435301-15.276867 0-4.195759-2.435301-4.195759-6.347431 0-8.782732 4.185979-2.435301 11.081108-2.435301 15.276867 0zM816.451729 922.147698c4.195759 2.435301 4.195759 6.357211 0 8.782732-4.185979 2.435301-11.081108 2.435301-15.276867 0-4.185979-2.425521-4.185979-6.347431 0-8.782732 4.195759-2.435301 11.090888-2.435301 15.276867 0zM847.142388 887.945903c4.195759 2.435301 4.195759 6.347431 0 8.782731s-11.081108 2.435301-15.276867 0c-4.185979-2.435301-4.185979-6.347431 0-8.782731 4.195759-2.435301 11.081108-2.435301 15.276867 0zM934.881681 917.277096c4.185979 2.435301 4.185979 6.357211 0 8.792512s-11.090888 2.435301-15.276867 0c-4.185979-2.435301-4.185979-6.357211 0-8.792512s11.090888-2.435301 15.276867 0zM926.773792 850.086266c5.965998 0 10.807259-2.777612 10.807259-6.210507 0-3.442674-4.841261-6.220287-10.807259-6.220286-5.975778 0-10.817039 2.777612-10.817039 6.220286 0 3.432894 4.841261 6.210506 10.817039 6.210507zM966.521032 841.841452c4.185979 2.435301 4.185979 6.357211 0 8.792512-4.195759 2.435301-11.090888 2.435301-15.276868 0-4.195759-2.435301-4.195759-6.357211 0-8.792512 4.185979-2.435301 11.081108-2.435301 15.276868 0zM1009.505559 794.260172c4.195759 2.425521 4.195759 6.347431 0 8.782732-4.185979 2.435301-11.081108 2.435301-15.276868 0-4.185979-2.435301-4.185979-6.357211 0-8.782732 4.195759-2.435301 11.090888-2.435301 15.276868 0zM430.745062 452.486724s-0.264069 0.948691-0.674842 1.222541l-22.57299 13.516408-2.836294 1.623534-28.255358 16.900401-2.846075 1.623534-26.494899 15.814785 74.486953 42.994308 4.733677 2.69937-2.836294 1.623533-4.733677-2.709149-75.161796-43.395301s-0.684623-0.674842-0.684623-1.212761c0-0.547698 0.273849-0.948691 0.684623-1.22254l27.169742-16.352703 2.836294-1.623534 28.255359-16.900401 2.846074-1.623534 21.761223-13.115416-41.771767-24.059598-7.032054-4.058835s-0.948691-1.21276-0.537918-1.887603c0.400993-0.674842 1.21276-0.948691 1.887603-0.547698l8.381738 4.870602 42.593314 24.607297s0.674842 0.674842 0.674843 1.21276h0.127144zM176.319694 691.781929L103.182426 649.599389l31.62957-18.250086s0.674842-0.674842 0.674843-1.222541c0-0.537918-0.264069-0.938911-0.674843-1.21276l-42.994307-24.734441-7.970965-4.606533c-0.674842-0.400993-1.486609-0.127144-1.897383 0.547698-0.400993 0.674842-0.127144 1.486609 0.547698 1.887603l6.083362 3.520916 42.720459 24.597517-31.639351 18.259866s-0.674842 0.674842-0.674842 1.212761 0.273849 0.948691 0.674842 1.21276l73.812111 42.593314 2.846074-1.623534zM325.029532 608.091691l-2.836294 1.623533-4.733677-2.699369-50.838128-29.340974s-0.674842-0.674842-0.674843-1.212761 0.273849-0.948691 0.674843-1.22254l23.932454-13.780478-58.672168-34.475645-5.545444-3.247067c-0.674842-0.410774-0.948691-1.222541-0.537918-1.897383 0.400993-0.674842 1.21276-0.938911 1.887603-0.537918l7.032053 4.195759 59.219867 34.876638s0.674842 0.674842 0.674842 1.21276c0 0.547698-0.273849 0.948691-0.674842 1.222541l-23.932455 13.790258 50.153505 28.9302 4.733677 2.69937 0.136925-0.136924zM388.572302 571.053601l-2.846075 1.623534-4.723897-2.70915-79.093486-45.693677s-0.674842-0.674842-0.674842-1.212761c0-0.547698 0.273849-0.948691 0.674842-1.22254l34.886419-20.137689-44.343993-25.692913-9.33043-5.398739c-0.674842-0.410774-0.948691-1.222541-0.537917-1.897383 0.400993-0.674842 1.21276-0.948691 1.887602-0.537918l10.680115 6.220286 45.155759 26.084126s0.674842 0.674842 0.674843 1.222541c0 0.537918-0.273849 0.938911-0.674843 1.21276l-34.876638 20.147469 78.408864 45.282904 4.733677 2.70915zM289.204202 628.777077l-2.836294 1.623534-4.733677-2.699369-51.649895-29.741968-36.901165 21.360229s-0.948691 0.264069-1.486609 0l-50.026361-28.803056-6.220287-3.511137c-0.674842-0.410774-0.938911-1.21276-0.537918-1.897383 0.410774-0.674842 1.222541-0.938911 1.897383-0.537917l7.296122 4.195759 47.992054 27.70766 36.910945-21.360229s0.948691-0.264069 1.48661 0l53.801566 31.101432 4.733677 2.69937 0.273849-0.136925z" fill="#05A1FF" p-id="11757"></path>
<path d="M456.164126 531.844279l-2.836294 1.623534-4.733677-2.69937-74.897727-43.268156-2.836294-1.613754-23.120688-13.389265-6.083362-3.511136c-0.674842-0.410774-0.948691-1.222541-0.537918-1.897383 0.400993-0.674842 1.21276-0.948691 1.887603-0.537918l7.706896 4.459828L373.559503 484.126074l2.846075 1.623534 74.897727 43.258377 4.723897 2.699369 0.136924 0.136925zM487.803477 513.457268l-2.846075 1.623534-4.723897-2.699369-75.445425-43.532226-2.836294-1.623534-87.201375-50.290429-4.459828-2.572226c-0.674842-0.400993-0.938911-1.21276-0.537918-1.887603 0.400993-0.674842 1.21276-0.948691 1.887602-0.547698l6.631061 3.784986 86.389608 49.889436 2.836294 1.623534 75.435645 43.532226 4.733677 2.699369h0.136925zM373.15851 579.973257l-2.836294 1.623534-4.733677-2.69937-99.906018-57.733257-6.63106-3.92191c-0.674842-0.400993-0.938911-1.21276-0.537918-1.887603 0.410774-0.674842 1.21276-0.948691 1.897383-0.537917l8.381739 4.860821 99.632168 57.596332 4.733677 2.69937zM232.830411 661.629188l-2.846075 1.623534-4.723897-2.69937-44.617841-25.820057-10.680115-6.220286s-0.948691-1.222541-0.537918-1.897383c0.400993-0.674842 1.21276-0.948691 1.887603-0.537918l12.303649 7.032053 44.480917 25.683133 4.733677 2.69937v0.136924zM91.690544 595.250124c4.185979 2.435301 4.185979 6.357211 0 8.792512-4.195759 2.435301-11.090888 2.435301-15.276867 0-4.195759-2.435301-4.195759-6.357211 0-8.792512 4.185979-2.435301 11.081108-2.435301 15.276867 0z" fill="#05A1FF" p-id="11758"></path>
<path d="M182.539981 625.129016c4.185979 2.435301 4.185979 6.357211 0 8.792512-4.195759 2.425521-11.090888 2.425521-15.276867 0-4.195759-2.435301-4.195759-6.357211 0-8.792512 4.185979-2.435301 11.081108-2.435301 15.276867 0zM142.655817 581.058873c4.185979 2.435301 4.185979 6.357211 0 8.782732-4.195759 2.435301-11.090888 2.435301-15.276868 0-4.195759-2.425521-4.195759-6.347431 0-8.782732 4.185979-2.435301 11.081108-2.435301 15.276868 0zM233.906246 516.978185c4.195759 2.435301 4.195759 6.347431 0 8.782732-4.185979 2.435301-11.081108 2.435301-15.276867 0-4.185979-2.435301-4.185979-6.347431 0-8.782732 4.195759-2.435301 11.090888-2.435301 15.276867 0zM159.419293 560.099637c4.185979 2.435301 4.185979 6.357211 0 8.792512-4.195759 2.435301-11.090888 2.435301-15.276867 0-4.195759-2.435301-4.195759-6.357211 0-8.792512 4.185979-2.435301 11.081108-2.435301 15.276867 0z" fill="#05A1FF" p-id="11759"></path>
<path d="M307.992206 617.960038l-2.836294 1.623534-4.733677-2.69937-118.293028-68.276447-21.497154 12.440574-8.107889 4.596752s-1.486609 0.136925-1.897383-0.537918c-0.400993-0.674842-0.127144-1.486609 0.547698-1.897383l6.62128-3.784985 23.658606-13.653334s0.948691-0.273849 1.486609 0l120.45448 69.489208 4.733677 2.699369h-0.136925zM505.642789 503.051003l-2.836294 1.623534-4.733677-2.70915-51.366266-29.741968s-0.684623-0.674842-0.684623-1.21276 0.273849-0.948691 0.684623-1.21276l23.922674-13.790258L411.957058 421.531996l-5.545444-3.247068s-0.938911-1.21276-0.537918-1.887602c0.400993-0.684623 1.21276-0.948691 1.897383-0.547698l7.159198 4.195759 59.219866 34.876638s0.674842 0.674842 0.674843 1.21276c0 0.547698-0.273849 0.948691-0.674843 1.222541l-23.932454 13.790258 50.701203 29.194269 4.723897 2.70915z" fill="#05A1FF" p-id="11760"></path>
<path d="M413.981585 411.663649c4.195759 2.425521 4.195759 6.347431 0 8.782731-4.185979 2.435301-11.081108 2.435301-15.276867 0-4.185979-2.435301-4.185979-6.357211 0-8.782731 4.195759-2.435301 11.090888-2.435301 15.276867 0zM268.108042 511.432741c4.195759 2.435301 4.195759 6.357211 0 8.782732-4.185979 2.435301-11.081108 2.435301-15.276867 0-4.185979-2.425521-4.185979-6.347431 0-8.782732 4.195759-2.435301 11.090888-2.435301 15.276867 0zM293.664031 466.687755c4.195759 2.425521 4.195759 6.347431 0 8.782732-4.185979 2.435301-11.081108 2.435301-15.276868 0-4.185979-2.435301-4.185979-6.357211 0-8.782732 4.195759-2.435301 11.090888-2.435301 15.276868 0zM318.672321 406.656122c4.195759 2.435301 4.195759 6.357211 0 8.792512-4.185979 2.435301-11.081108 2.435301-15.276867 0-4.185979-2.435301-4.185979-6.357211 0-8.792512 4.195759-2.425521 11.090888-2.425521 15.276867 0zM386.000076 418.959771c4.195759 2.435301 4.195759 6.357211 0 8.792512-4.195759 2.425521-11.081108 2.425521-15.276867 0-4.185979-2.435301-4.185979-6.357211 0-8.792512 4.195759-2.435301 11.081108-2.435301 15.276867 0zM350.311671 462.491996c4.185979 2.435301 4.185979 6.357211 0 8.792512-4.195759 2.425521-11.090888 2.425521-15.276867 0-4.195759-2.435301-4.195759-6.357211 0-8.792512 4.185979-2.435301 11.081108-2.435301 15.276867 0zM909.335473 615.534518s-0.273849 0.938911-0.684623 1.21276l-70.701967 40.832856-4.733678 2.699369-2.836294-1.623534 4.733677-2.699369 70.027125-40.422082-64.217612-38.53448-2.836294-1.623534-15.824565-9.457574s-0.674842-0.684623-0.674843-1.22254 0.273849-0.948691 0.674843-1.212761l42.593314-24.607297 8.381738-4.870601s1.486609-0.127144 1.887603 0.547698c0.410774 0.674842 0.136925 1.486609-0.537918 1.887603l-7.032053 4.058834-41.771767 24.059599 15.139942 9.056581 2.836294 1.623534 64.892455 38.935473s0.684623 0.674842 0.684623 1.22254v0.136925zM841.733868 525.897841l-5.545444 3.247068-58.672168 34.475645 23.932455 13.790258s0.674842 0.674842 0.674842 1.21276-0.273849 0.948691-0.674842 1.21276l-48.803821 28.255359-4.733677 2.709149-2.836294-1.623533 4.723897-2.69937 48.128978-27.71744-23.922675-13.790258s-0.674842-0.674842-0.674842-1.222541c0-0.537918 0.264069-0.938911 0.674842-1.21276l59.210086-34.876638 7.032054-4.195759c0.674842-0.400993 1.486609-0.136925 1.887603 0.537917 0.410774 0.684623 0.136925 1.49639-0.537918 1.897383h0.136924zM781.037173 464.389379l-9.066361 5.271595-45.820822 26.4949 35.688405 20.548462s0.674842 0.674842 0.674843 1.21276c0 0.547698-0.273849 0.948691-0.674843 1.222541l-81.792855 47.180287-4.733678 2.70915-2.836294-1.623534 4.733677-2.70915 81.108234-46.779294-35.688405-20.548462s-0.674842-0.674842-0.674843-1.21276 0.273849-0.948691 0.674843-1.21276l46.916217-27.042598 10.132417-5.946438c0.674842-0.410774 1.486609-0.136925 1.897383 0.537918 0.400993 0.674842 0.136925 1.486609-0.537918 1.897383zM985.710029 643.652951l-6.083362 3.511137-41.233849 23.79553s-0.938911 0.273849-1.48661 0l-30.954728-17.976237-37.849856 21.898147-4.733677 2.69937-2.846075-1.623534 4.733677-2.69937 40.021089-23.120687s0.948691-0.264069 1.486609 0l30.954728 17.986017 38.798548-22.445845 7.843821-4.459829c0.674842-0.400993 1.486609-0.136925 1.897383 0.537918 0.400993 0.674842 0.127144 1.486609-0.547698 1.897383zM723.44084 471.959351l-6.083361 3.511136-97.470717 56.236867-4.733677 2.70915-2.836294-1.623534 4.723897-2.699369 97.069723-56.109723 7.706896-4.459828c0.674842-0.410774 1.486609-0.136925 1.897383 0.537918 0.400993 0.674842 0.127144 1.486609-0.547699 1.897383h0.273849zM757.779561 416.798319l-4.459828 2.572225-163.849781 94.497498-4.733677 2.69937-2.846074-1.623534 4.733677-2.69937 163.174938-94.096504 6.63106-3.784986c0.674842-0.400993 1.486609-0.136925 1.887603 0.547698 0.410774 0.674842 0.136925 1.486609-0.537918 1.887603zM809.018682 519.814479l-6.758204 3.921911-98.018415 56.647641-4.733677 2.699369-2.836294-1.623534 4.733677-2.699369 97.744565-56.510717 8.381739-4.870601c0.674842-0.400993 1.486609-0.136925 1.887602 0.537917 0.410774 0.684623 0.136925 1.49639-0.537918 1.897383h0.136925zM702.755454 518.601719l-10.680115 6.220287-42.045616 24.333448-4.733677 2.699369-2.836294-1.623534 4.733677-2.699369 41.908691-24.206304 12.303649-7.022273c0.674842-0.410774 1.486609-0.136925 1.887603 0.537918 0.410774 0.674842 0.136925 1.486609-0.537918 1.887602v-0.127144z" fill="#05A1FF" p-id="11761"></path>
<path d="M697.757708 525.623992c5.965998 0 10.817039-2.777612 10.817039-6.210506 0-3.442674-4.851041-6.220287-10.817039-6.220286-5.975778 0-10.817039 2.777612-10.817039 6.220286 0 3.432894 4.841261 6.210506 10.817039 6.210506zM977.201146 637.158816c-4.195759 2.435301-4.195759 6.357211 0 8.792512 4.185979 2.435301 11.081108 2.435301 15.276867 0 4.185979-2.435301 4.185979-6.357211 0-8.792512-4.195759-2.425521-11.090888-2.425521-15.276867 0zM834.163897 519.413486c-4.195759 2.425521-4.195759 6.347431 0 8.782732 4.185979 2.435301 11.081108 2.435301 15.276867 0 4.185979-2.435301 4.185979-6.357211 0-8.782732-4.195759-2.435301-11.090888-2.435301-15.276867 0zM908.65085 562.534938c-4.185979 2.435301-4.185979 6.357211 0 8.792512 4.195759 2.425521 11.090888 2.425521 15.276867 0 4.195759-2.435301 4.195759-6.357211 0-8.792512-4.185979-2.435301-11.081108-2.435301-15.276867 0z" fill="#05A1FF" p-id="11762"></path>
<path d="M917.443362 567.532684c-0.410774 0.684623-1.222541 0.948691-1.897383 0.547698l-8.107889-4.596753-21.497154-12.440573-42.182541 24.333448-2.836294 1.623534-71.249665 41.096925-4.723897 2.70915-2.846075-1.623534 4.733677-2.70915 71.249666-41.096925 2.836294-1.623534 44.343993-25.546208s0.948691-0.273849 1.486609 0l23.658606 13.653334 6.621279 3.784985s0.948691 1.21276 0.547699 1.887603h-0.136925zM661.658529 420.720229l-5.545444 3.247068-58.672168 34.465864 23.932455 13.790258s0.674842 0.674842 0.674842 1.222541c0 0.537918-0.273849 0.948691-0.674842 1.21276l-50.026361 28.793276-4.723897 2.70915-17.849093 10.269341s-0.410774 0.136925-0.674842 0.136925c-0.547698 0-0.948691-0.264069-1.222541-0.674843-0.400993-0.674842-0.136925-1.623534 0.547698-1.887602l16.352703-9.467355 4.733677-2.699369 49.214594-28.392283-23.932454-13.790258s-0.674842-0.674842-0.674843-1.222541c0-0.537918 0.264069-0.938911 0.674843-1.21276l59.210086-34.876638 7.168978-4.195759s1.486609-0.136925 1.887602 0.547698c0.410774 0.674842 0.136925 1.486609-0.537917 1.887603l0.136924 0.136924z" fill="#05A1FF" p-id="11763"></path>
<path d="M654.088558 414.226094c-4.195759 2.435301-4.195759 6.357211 0 8.792512 4.185979 2.435301 11.081108 2.435301 15.276867 0 4.185979-2.435301 4.185979-6.357211 0-8.792512-4.195759-2.425521-11.090888-2.425521-15.276867 0zM799.962101 513.868042c-4.195759 2.435301-4.195759 6.347431 0 8.782732 4.185979 2.435301 11.081108 2.435301 15.276867 0 4.185979-2.435301 4.185979-6.347431 0-8.782732-4.195759-2.435301-11.090888-2.435301-15.276867 0zM771.432894 460.467469c-4.185979 2.435301-4.185979 6.357211 0 8.782732 4.195759 2.435301 11.090888 2.435301 15.276867 0 4.195759-2.425521 4.195759-6.347431 0-8.782732-4.185979-2.435301-11.081108-2.435301-15.276867 0zM749.397822 409.228348c-4.185979 2.435301-4.185979 6.357211 0 8.782731 4.185979 2.435301 11.081108 2.435301 15.276868 0 4.185979-2.425521 4.185979-6.347431 0-8.782731-4.195759-2.435301-11.090888-2.435301-15.276868 0zM866.47809 531.169436c-4.195759 2.435301-4.195759 6.357211 0 8.792512 4.185979 2.435301 11.081108 2.435301 15.276867 0 4.185979-2.435301 4.185979-6.357211 0-8.792512-4.195759-2.435301-11.090888-2.435301-15.276867 0zM714.785253 465.465215c-4.185979 2.435301-4.185979 6.357211 0 8.792512 4.195759 2.425521 11.090888 2.425521 15.276867 0 4.195759-2.435301 4.195759-6.357211 0-8.792512-4.185979-2.435301-11.081108-2.435301-15.276867 0z" fill="#05A1FF" p-id="11764"></path>
<path d="M389.11022 513.594193l-23.521681-13.653333c-2.572225-1.486609-4.459828-4.459828-5.271595-9.193506l23.521681 13.653334c0.674842 4.733677 2.69937 7.706896 5.271595 9.193505z" fill="#E5E2F2" p-id="11765"></path>
<path d="M389.11022 513.594193l-23.521681-13.653333c-2.572225-1.486609-4.459828-4.459828-5.271595-9.056581l23.521681 13.653333c0.811767 4.596753 2.69937 7.569971 5.271595 9.056581z" fill="#E5E2F2" p-id="11766"></path>
<path d="M383.838625 504.537612l-23.521681-13.653333v-0.136925l23.521681 13.653334v0.136924zM409.257689 267.951557L432.77937 281.60489c-6.895129-4.058835-16.362483-3.511137-27.042598 2.69937l-23.521681-13.653334c10.680115-6.210506 20.147469-6.62128 27.042598-2.699369z" fill="#E5E2F2" p-id="11767"></path>
<path d="M405.873696 284.30426l-23.521681-13.653334c10.680115-6.210506 20.137689-6.62128 27.032818-2.699369l23.531461 13.653333c-6.895129-4.058835-16.362483-3.511137-27.042598 2.69937zM383.838625 504.400688l-23.521681-13.653334-22.58277-143.575167 23.521681 13.790258 22.58277 143.438243z" fill="#E5E2F2" p-id="11768"></path>
<path d="M398.567794 288.500019l-23.521681-13.653333 7.168978-4.19576 23.658605 13.653334-7.305902 4.195759z" fill="#F5F4FB" p-id="11769"></path>
<path d="M361.255855 360.962445l-23.521681-13.653333c-3.784986-24.470372 13.927182-58.946017 37.448863-72.462426l23.521681 13.653333c-23.521681 13.516409-41.233849 47.992053-37.448863 72.462426z" fill="#F5F4FB" p-id="11770"></path>
<path d="M361.255855 360.962445l-23.521681-13.653333c-1.21276-7.433047-0.400993-15.814785 2.034307-24.196524l23.521681 13.653334c-2.435301 8.381738-3.247068 16.763477-2.034307 24.196523z" fill="#F5F4FB" p-id="11771"></path>
<path d="M363.290162 336.765922l-23.521681-13.653334c2.69937-9.467354 7.296122-19.061853 13.24256-27.443591l23.521681 13.653333c-5.946437 8.381738-10.680115 17.976237-13.24256 27.443592z" fill="#F5F4FB" p-id="11772"></path>
<path d="M376.532722 309.32233l-23.521681-13.653333c4.596753-6.357211 9.868348-12.166724 15.687641-16.626552l23.521681 13.653333c-5.819293 4.459828-11.218032 10.132416-15.687641 16.626552zM392.357287 292.695778l-23.521681-13.653333c2.024527-1.623534 4.185979-2.982999 6.347431-4.332684l23.521681 13.653334c-2.161452 1.222541-4.322904 2.70915-6.347431 4.332683z" fill="#F5F4FB" p-id="11773"></path>
<path d="M405.873696 284.30426c23.384756-13.516409 41.370774 0.273849 37.722713 29.076905L421.825406 482.502541c-1.760458 13.379484-10.269341 24.470372-18.924928 29.468118-8.655587 5.007526-17.17425 3.784986-19.061853-7.569971l-22.58277-143.438243c-3.784986-24.470372 13.927182-58.946017 37.448863-72.462426l7.168978-4.195759z" fill="#D2CBF6" p-id="11774"></path>
<path d="M431.830678 285.5268l16.362483 9.467355c-6.895129-4.058835-16.636332-3.520917-27.179522 2.699369l-16.352703-9.467354c10.680115-6.083362 20.274613-6.758204 27.169742-2.69937z" fill="#05A1FF" p-id="11775"></path>
<path d="M421.013639 297.693524l-16.352703-9.467354c10.680115-6.083362 20.274613-6.758204 27.169742-2.69937l16.362483 9.467355c-6.895129-4.058835-16.636332-3.520917-27.179522 2.699369zM424.798625 313.782159c14.4651-8.381738 26.230831-1.623534 26.367755 15.003018 0 16.636332-11.628806 36.910946-26.230831 45.292684-14.4651 8.381738-26.357975 1.623534-26.357975-15.003019 0-16.636332 11.619026-37.04787 26.221051-45.292683z" fill="#05A1FF" p-id="11776"></path>
<path d="M393.980821 388.406036l-16.362483-9.457574c-6.895129-4.058835-11.081108-12.440573-11.218032-24.607297 0-24.333448 17.027545-53.948271 38.123705-66.114995l16.352703 9.467354c-21.08638 12.166724-38.26063 41.771767-38.123705 66.105215 0 12.03958 4.332684 20.558243 11.227812 24.607297z" fill="#05A1FF" p-id="11777"></path>
<path d="M393.980821 388.406036l-16.362483-9.457574c-6.083362-3.520917-10.142197-10.680115-10.953964-20.685387l16.362484 9.457574c0.811767 10.005272 4.870602 17.037326 10.953963 20.685387z" fill="#05A1FF" p-id="11778"></path>
<path d="M383.026858 367.720649l-16.362484-9.457574c0-1.222541-0.127144-2.572225-0.127144-3.92191 0-20.959236 12.567717-45.830602 29.741968-60.158777l16.352703 9.457574c-17.027545 14.328176-29.741968 39.209322-29.741968 60.158777 0 1.359465 0 2.70915 0.136925 3.92191z" fill="#05A1FF" p-id="11779"></path>
<path d="M412.494976 303.776886l-16.352703-9.467354c2.69937-2.298376 5.535664-4.322904 8.518663-5.946437l16.352703 9.467354c-2.973219 1.623534-5.809513 3.648061-8.518663 5.946437z" fill="#05A1FF" p-id="11780"></path>
<path d="M424.798625 313.782159l-3.784986-15.95171c21.09616-12.166724 38.397555-2.435301 38.397555 21.898147 0 24.333448-17.037326 53.938491-38.123706 66.105215-21.09616 12.176504-38.397555 2.435301-38.397555-21.898147 0-24.333448 17.037326-53.938491 38.123706-66.105215l3.784986 15.95171c-14.4651 8.381738-26.221051 28.656351-26.221051 45.292683 0 16.626552 11.892875 23.384756 26.357975 15.003019s26.230831-28.656351 26.230831-45.292684c0-16.626552-11.902655-23.384756-26.367755-15.003018z" fill="#05A1FF" p-id="11781"></path>
<path d="M424.798625 313.782159l-3.784986-15.95171c21.09616-12.166724 38.397555-2.435301 38.397555 21.898147 0 24.333448-17.037326 53.938491-38.123706 66.105215-21.09616 12.176504-38.397555 2.435301-38.397555-21.898147 0-24.333448 17.037326-53.938491 38.123706-66.105215l3.784986 15.95171c-14.4651 8.381738-26.221051 28.656351-26.221051 45.292683 0 16.626552 11.892875 23.384756 26.357975 15.003019s26.230831-28.656351 26.230831-45.292684c0-16.626552-11.902655-23.384756-26.367755-15.003018z" fill="#1380FD" p-id="11782"></path>
<path d="M380.09276 21.252646l-8.019866 2.454861 42.485731 138.704566 8.019866-2.454862-42.485731-138.704565z" fill="#1D1F33" p-id="11783"></path>
<path d="M469.279542 596.873658c-38.935473-24.059599-47.727985-56.373792-51.512971-70.16405 2.973219 13.25234 13.389265 26.367755 31.101433 37.03809 44.207068 26.641605 117.344336 27.316447 163.448787 1.623534 19.736695-11.081108 31.355721-25.145215 34.602789-39.74724-2.973219 11.491882-7.569971 28.803056-24.734442 48.813601-6.494136 7.569971-20.959236 21.624298-43.942999 30.954728-35.013563 14.064107-77.734021 10.680115-108.825673-8.518663h-0.136924z" fill="#989BE0" p-id="11784"></path>
<path d="M612.991633 281.066972c43.121452 25.956982 41.634842 67.190831-3.247068 92.336046-44.88191 25.00829-116.2685 24.333448-159.253027-1.623534-43.131232-25.956982-41.644623-67.190831 3.237287-92.336046 44.891691-25.145215 116.2685-24.333448 159.262808 1.623534z" fill="#EFECF8" p-id="11785"></path>
<path d="M417.639427 526.298835l-34.749494-151.819981c4.058835 17.712168 17.575244 34.886418 40.559007 48.676676 57.459408 34.602789 152.494823 35.55148 212.389532 2.161452 25.683133-14.328176 40.686151-32.715186 45.018835-51.649895l-33.937727 151.956905c-3.247068 14.602025-14.866094 28.666132-34.602789 39.74724-46.104451 25.692913-119.241719 25.018071-163.448787-1.623534-17.712168-10.670334-28.128214-23.78575-31.228577-37.448863z" fill="#C5BEED" p-id="11786"></path>
<path d="M435.21467 277.008138c58.672168-31.903419 141.677784-30.954728 197.513659 2.298376-5.007526-2.973219-11.902655-2.69937-19.736696 1.623534-43.131232-25.956982-114.371117-26.631824-159.262808-1.623534-44.88191 25.00829-46.36852 66.379064-3.237287 92.336046 43.121452 25.956982 114.371117 26.631824 159.253027 1.623534 44.88191-25.00829 46.36852-66.379064 3.247068-92.336046 7.83404-4.322904 14.729169-4.596753 19.736696-1.623534 11.628806 7.569971 29.331194 18.924928 41.634842 42.994307 11.491882 22.436065 7.980745 42.446609 6.494136 51.102197-4.332684 19.462846-19.335702 37.849857-45.018835 52.178033-59.894709 33.399809-154.930124 32.451117-212.389532-2.161452-22.983763-13.790258-36.363247-30.954728-40.559007-48.666896-1.486609-7.706896-2.836294-15.003018-1.349685-26.357975 1.760458-14.337956 7.433047-25.154995 7.706896-25.555989 4.322904-7.970965 15.677861-29.20405 46.094671-45.693677l-0.127145-0.136924z" fill="#E5E2F2" p-id="11787"></path>
<path d="M594.193849 93.685731c32.989035 19.87362 31.903419 51.649895-2.562445 70.838892-34.475645 19.198777-89.098758 18.66086-122.214938-1.212761-32.989035-19.87362-31.903419-51.640115 2.562445-70.838892 34.475645-19.198777 89.098758-18.66086 122.214938 1.212761z" fill="#F5F4FB" p-id="11788"></path>
<path d="M425.747316 330.819484c-53.126724-32.852111-64.892455-76.521261-65.293448-107.21192 0 24.744222 15.95171 49.341738 47.718205 68.540516 65.567297 39.483171 174.265826 40.559007 242.669417 2.435301 35.150487-19.599771 52.862655-45.830602 52.862655-72.051652-0.537918 16.078854-1.486609 24.460592-7.980745 42.446609-4.997746 14.064107-14.054327 26.093906-18.924928 32.578262-2.298376 2.973219-23.384756 29.878892-64.080688 45.830602-70.565043 27.443591-144.787927 13.516409-186.833543-12.567718h-0.136925z" fill="#C5BEED" p-id="11789"></path>
<path d="M430.745062 87.465444c31.101433-16.890621 66.114995-25.272359 103.964852-24.871366 38.798548 0.537918 73.684967 9.731423 103.691003 27.443592-11.218032-6.758204-26.895893-6.083362-44.070143 3.511136-32.989035-19.87362-87.739293-20.411538-122.214938-1.21276-34.475645 19.198777-35.55148 50.828348-2.562445 70.838892 32.979255 19.87362 87.739293 20.421318 122.205157 1.222541 34.475645-19.198777 35.561261-50.838128 2.572226-70.848673 17.311175-9.594499 32.852111-10.269341 44.070143-3.511136 15.824565 10.142197 63.816619 41.233849 65.303228 107.211919 0 26.221051-17.575244 52.314957-52.862655 72.051653-68.403591 38.123706-176.965196 37.04787-242.669417-2.435301-31.903419-19.188997-47.718204-43.796294-47.718205-68.540516 0.400993-9.594499 0.811767-20.411538 4.997746-33.800802 4.997746-15.677861 9.193505-22.436065 16.362483-33.654098 5.535664-8.792512 22.973983-29.340974 48.930965-43.405081z" fill="#EFECF8" p-id="11790"></path>
<path d="M565.801566 295.258223c-55.562025 6.494136-115.446953-2.973219-157.629493-28.392282-31.62957-19.061853-47.59106-43.532225-47.718205-68.129742 0-15.95171 6.484355-30.690659 17.565463-42.45639 0.273849 22.035072 14.474881 44.070143 42.857383 61.107469 37.859637 22.719694 91.524279 31.228577 141.276791 25.419064 2.171232 17.976237 3.520917 36.500172 3.648061 52.451881z" fill="#041B99" p-id="11791"></path><path d="M360.453868 223.607564v-25.282139c0 24.744222 15.814785 49.351519 47.718205 68.540516 65.567297 39.483171 174.265826 40.559007 242.669417 2.435301 35.150487-19.599771 52.862655-45.830602 52.862655-72.051653v25.28214c0.136925 26.221051-17.575244 52.314957-52.72573 72.051652-68.403591 38.123706-176.965196 37.04787-242.669418-2.435301-31.903419-19.198777-47.727985-43.796294-47.727985-68.540516h-0.127144z" fill="#E5E2F2" p-id="11792"></path>
<path d="M388.298453 224.282407c-3.383992 9.467354-9.193505 10.142197-13.115416 1.486609-6.62128-14.602025 0-32.177268 8.792512-29.605043 1.623534 0.410774 2.425521 1.349685 3.237288 2.298377 5.545444 7.84382 2.572225 21.634078 1.085616 25.820057zM485.642025 267.413639c-2.572225 14.328176-20.558243 16.763477-29.614823 3.92191-9.457574-13.389265 0.948691-28.666132 14.201031-27.042598 0.537918 0 1.075836 0.136925 1.623534 0.273849 11.75595 3.374212 15.139943 15.404011 13.790258 22.709914v0.136925z" fill="#05A1FF" p-id="11793"></path>
<path d="M645.843744 205.895396c0-8.518663-5.956218-11.892875-13.25234-7.706896-7.296122 4.195759-13.25234 14.602025-13.25234 22.983764s5.956218 11.902655 13.25234 7.706896c7.296122-4.185979 13.25234-14.602025 13.25234-22.983764z" fill="#1462FC" p-id="11794"></path>
<path d="M634.214938 217.925196c-1.21276 0-2.572225-0.537918-3.383992-1.613754-1.349685-1.897383-0.948691-4.469608 0.811767-5.819293l96.795873-72.736275c1.897383-1.349685 4.469608-0.938911 5.819294 0.821547 1.349685 1.887603 0.948691 4.459828-0.811767 5.809513L636.650239 217.123209c-0.811767 0.537918-1.623534 0.801987-2.572226 0.801987h0.136925z" fill="#1D1F33" p-id="11795"></path>
<path d="M755.755033 135.868271c0-12.440573-10.142197-22.572989-22.582769-22.572989s-22.572989 10.132416-22.57299 22.572989c0 12.440573 10.132416 22.572989 22.57299 22.57299 12.440573 0 22.58277-10.132416 22.582769-22.57299zM396.543266 22.572989C396.543266 10.142197 386.40107 0 373.970277 0c-12.440573 0-22.58277 10.142197-22.58277 22.572989 0 12.440573 10.142197 22.58277 22.58277 22.58277 12.430793 0 22.572989-10.142197 22.572989-22.58277z" fill="#1462FC" p-id="11796"></path>
<path d="M665.717364 366.370965l16.352703 9.467354c-6.895129-4.058835-16.626552-3.520917-27.169742 2.69937l-16.362484-9.467355c10.680115-6.083362 20.284394-6.758204 27.179523-2.699369z" fill="#05A1FF" p-id="11797"></path>
<path d="M654.900325 378.537689l-16.362484-9.467355c10.680115-6.083362 20.284394-6.758204 27.179523-2.699369l16.352703 9.467354c-6.895129-4.058835-16.626552-3.520917-27.169742 2.69937zM658.68531 394.626323c14.4651-8.381738 26.221051-1.623534 26.357976 15.003018 0 16.636332-11.628806 36.910946-26.221051 45.292684-14.4651 8.381738-26.367755 1.623534-26.367756-15.003018s11.628806-37.04787 26.230831-45.292684z" fill="#05A1FF" p-id="11798"></path>
<path d="M627.857727 469.250201l-16.352703-9.457574c-6.895129-4.058835-11.090888-12.440573-11.227813-24.607297 0-24.333448 17.037326-53.938491 38.123706-66.114996l16.362483 9.467355c-21.08638 12.166724-38.26063 41.771767-38.123706 66.114995 0 12.029799 4.322904 20.548462 11.218033 24.597517z" fill="#05A1FF" p-id="11799"></path>
<path d="M627.857727 469.250201l-16.352703-9.457574c-6.083362-3.520917-10.142197-10.680115-10.953964-20.685387l16.352703 9.457574c0.821547 10.005272 4.870602 17.037326 10.953964 20.685387zM616.903763 448.564814l-16.352703-9.457574c0-1.222541-0.136925-2.572225-0.136924-3.92191 0-20.959236 12.577498-45.830602 29.741967-60.158778l16.362483 9.457574c-17.037326 14.328176-29.741968 39.209322-29.741967 60.168558 0 1.349685 0 2.69937 0.127144 3.91213z" fill="#05A1FF" p-id="11800"></path>
<path d="M646.381662 384.621051l-16.362483-9.467355c2.70915-2.288596 5.545444-4.322904 8.518662-5.946437l16.362484 9.467354c-2.973219 1.623534-5.819293 3.648061-8.518663 5.946438z" fill="#05A1FF" p-id="11801"></path>
<path d="M658.68531 394.626323l-3.784985-15.95171c21.08638-12.166724 38.397555-2.435301 38.397555 21.898147 0 24.333448-17.037326 53.948271-38.133486 66.114995-21.08638 12.166724-38.387775 2.425521-38.387775-21.907927s17.027545-53.938491 38.123706-66.105215l3.784985 15.95171c-14.4651 8.381738-26.230831 28.666132-26.230831 45.292684 0 16.626552 11.902655 23.384756 26.367756 15.003018 14.4651-8.381738 26.221051-28.656351 26.221051-45.292684 0-16.626552-11.892875-23.384756-26.357976-15.003018z" fill="#05A1FF" p-id="11802"></path>
<path d="M658.68531 394.626323l-3.784985-15.95171c21.08638-12.166724 38.397555-2.435301 38.397555 21.898147 0 24.333448-17.037326 53.948271-38.133486 66.114995-21.08638 12.166724-38.387775 2.425521-38.387775-21.907927s17.027545-53.938491 38.123706-66.105215l3.784985 15.95171c-14.4651 8.381738-26.230831 28.666132-26.230831 45.292684 0 16.626552 11.902655 23.384756 26.367756 15.003018 14.4651-8.381738 26.221051-28.656351 26.221051-45.292684 0-16.626552-11.892875-23.384756-26.357976-15.003018z" fill="#1380FD" p-id="11803"></path>
<path d="M665.981433 619.319503l-23.521681-13.653333c-2.572225-1.486609-4.459828-4.469608-5.271595-9.193505l23.521681 13.653333c0.674842 4.723897 2.70915 7.706896 5.271595 9.193505z" fill="#E5E2F2" p-id="11804"></path>
<path d="M665.981433 619.319503l-23.521681-13.653333c-2.572225-1.486609-4.459828-4.469608-5.271595-9.066361l23.521681 13.663114c0.811767 4.586972 2.70915 7.569971 5.271595 9.05658z" fill="#E5E2F2" p-id="11805"></path>
<path d="M660.709838 610.262923L637.188157 596.599809v-0.127144l23.521681 13.653333v0.136925zM686.265826 373.804011l23.521681 13.653334c-6.895129-4.049054-16.362483-3.511137-27.042598 2.70915l-23.521681-13.653334c10.680115-6.220287 20.147469-6.63106 27.042598-2.70915z" fill="#E5E2F2" p-id="11806"></path>
<path d="M682.744909 390.166495l-23.521681-13.653334c10.680115-6.220287 20.147469-6.63106 27.042598-2.70915l23.521681 13.653334c-6.895129-4.049054-16.362483-3.511137-27.042598 2.70915zM660.709838 610.125998L637.188157 596.472665 614.615167 453.024642l23.521681 13.663113 22.57299 143.438243z" fill="#E5E2F2" p-id="11807"></path>
<path d="M675.448787 394.22533l-23.521681-13.663114 7.159198-4.185979 23.658605 13.790258-7.296122 4.058835z" fill="#F5F4FB" p-id="11808"></path>
<path d="M638.136848 466.687755l-23.521681-13.663113c-3.794766-24.460592 13.917402-58.936237 37.448864-72.462426l23.521681 13.663114c-23.521681 13.516409-41.233849 47.992053-37.448864 72.462425z" fill="#F5F4FB" p-id="11809"></path>
<path d="M638.136848 466.687755l-23.521681-13.663113c-1.222541-7.433047-0.273849-15.814785 2.024527-24.196524l23.521681 13.653334c-2.435301 8.381738-3.247068 16.763477-2.024527 24.206303z" fill="#F5F4FB" p-id="11810"></path>
<path d="M640.161375 442.481452l-23.521681-13.653334c2.69937-9.457574 7.296122-19.061853 13.25234-27.443591l23.521681 13.653334c-5.956218 8.381738-10.680115 17.986017-13.25234 27.443591zM653.413715 415.037861l-23.521681-13.653334c4.596753-6.357211 9.868348-12.166724 15.677861-16.626552l23.521681 13.653334c-5.809513 4.459828-11.218032 10.142197-15.677861 16.626552z" fill="#F5F4FB" p-id="11811"></path>
<path d="M669.2285 398.548233l-23.521681-13.653333c2.024527-1.623534 4.185979-2.973219 6.357212-4.332684l23.521681 13.663114c-2.171232 1.21276-4.332684 2.69937-6.357212 4.322903z" fill="#F5F4FB" p-id="11812"></path>
<path d="M682.744909 390.166495c23.521681-13.516409 41.370774 0.264069 37.722713 29.067125l-21.771003 169.121375c-1.750678 13.389265-10.269341 24.470372-18.924928 29.477899-8.645807 4.997746-17.16447 3.784986-19.061853-7.569971l-22.57299-143.438243c-3.784986-24.470372 13.927182-58.946017 37.448864-72.472206l7.159197-4.185979z" fill="#D2CBF6" p-id="11813"></path></svg>