<svg t="1776592587931" fill="currentColor" viewBox="0 0 1024 1024" version="1.1" xmlns="http://www.w3.org/2000/svg" p-id="15009" width="200" height="200"><path d="M512.352457 90.073767a0.50086 0.50086 0 0 0-0.70589 0 0.499884 0.499884 0 1 0 0.70589 0z m0 0M948.531233 282.965405c5.68813 5.690082 8.949089 13.531031 8.951042 21.511596 0 7.961038-3.264865 15.789295-8.9569 21.479377L533.468637 741.015068c-5.73597 5.745733-13.35822 8.912965-21.467661 8.922729-8.10163 0.009763-15.712164-3.135013-21.427631-8.849503L75.395542 325.956378c-11.841971-11.841971-11.838066-31.134357 0.00781-43.002689 5.732065-5.732065 13.368959-8.891486 21.501833-8.891486 8.13092 0 15.769768 3.159421 21.50769 8.897344l393.573456 393.577361L905.559787 282.9615c11.847829-11.843924 31.122641-11.843924 42.966565 0l0.004881 0.003905z" p-id="15010"></path></svg>