<svg t="1776583720552" fill="currentColor" viewBox="0 0 1024 1024" version="1.1" xmlns="http://www.w3.org/2000/svg" p-id="12940" width="200" height="200"><path d="M485.888 99.776c11.776 0 23.04 4.544 31.36 12.8a43.008 43.008 0 0 1 12.672 30.464c0 11.52-4.608 22.592-12.672 30.848a45.44 45.44 0 0 1-14.208 9.408 45.44 45.44 0 0 1-17.152 3.392H313.024c-10.88 0-21.312 0.704-31.36 3.008a137.6 137.6 0 0 0-30.208 8.96c-9.856 3.84-19.2 8.832-27.968 14.72-8.704 5.76-16.832 12.416-24.32 19.648a174.4 174.4 0 0 0-20.16 24.064c-11.776 17.28-19.84 36.736-23.872 57.216-2.112 10.112-3.136 20.48-3.008 30.848v230.592a151.424 151.424 0 0 0 12.352 61.312 153.6 153.6 0 0 0 35.52 52.352 156.992 156.992 0 0 0 52.864 34.624c9.728 4.096 20.224 7.104 30.656 9.408 10.496 1.92 20.928 3.008 31.744 3.008a49.6 49.6 0 0 1 35.52 14.272 51.584 51.584 0 0 1 15.232 35.008l0.384 61.376 111.232-80.192c27.648-20.096 61.056-30.784 95.232-30.464h137.792c10.752 0 21.248-1.152 31.36-3.008 10.368-1.92 20.48-4.864 30.208-9.024 9.728-4.16 19.072-9.024 28.032-14.72 8.512-5.632 16.832-12.416 24.256-19.52a166.4 166.4 0 0 0 20.096-24.128c11.968-17.152 20.16-36.672 24-57.216a141.44 141.44 0 0 0 2.88-30.784V475.712c0-5.632 1.216-11.264 3.392-16.576a40.32 40.32 0 0 1 9.728-13.952 39.424 39.424 0 0 1 14.208-9.408 44.928 44.928 0 0 1 48.192 9.408c8.32 8 12.992 19.008 12.992 30.528v102.336c0 32.128-6.4 64-19.008 93.632-6.4 14.912-14.08 29.12-23.104 42.496-8.96 13.568-19.456 26.048-31.04 37.312s-24.256 21.504-37.76 30.464a253.12 253.12 0 0 1-138.432 41.408H601.6c-34.688 0-66.368 10.176-94.72 30.528L359.232 960a50.944 50.944 0 0 1-48.832 6.016 48.192 48.192 0 0 1-16.384-10.944 44.992 44.992 0 0 1-10.88-15.744 47.936 47.936 0 0 1-4.16-18.816l-1.088-99.776a262.528 262.528 0 0 1-84.032-28.16 248.832 248.832 0 0 1-36.864-24.96 221.632 221.632 0 0 1-32.128-30.4 273.728 273.728 0 0 1-26.112-35.776c-15.04-25.28-25.6-53.12-30.976-82.048A243.968 243.968 0 0 1 64 575.744V345.152c0-16.192 1.536-32 4.48-47.808 3.328-15.872 8.256-31.232 14.208-46.272 12.864-29.632 31.232-56.576 54.08-79.36 11.648-11.328 24.32-21.568 37.76-30.592 13.76-9.024 28.032-16.576 42.944-22.528 15.104-6.336 30.848-10.944 47.04-13.952 16-3.328 32.192-4.928 48.512-4.864h172.864z" fill="#1E6FFF" p-id="12941"></path><path d="M255.744 374.592L256 379.328a43.136 43.136 0 0 0 42.752 38.656h212.992a43.264 43.264 0 0 0 43.136-43.456l-0.256-4.672a43.264 43.264 0 0 0-42.88-38.72H298.752a43.264 43.264 0 0 0-43.008 43.456zM256.256 563.456l0.256 4.736a43.136 43.136 0 0 0 42.752 38.656h340.992a43.264 43.264 0 0 0 43.136-43.456l-0.256-4.672a43.264 43.264 0 0 0-42.88-38.72H299.264a43.264 43.264 0 0 0-43.008 43.52zM625.28 225.728l0.192 4.736a43.2 43.2 0 0 0 42.88 38.72h76.992V343.04a44.288 44.288 0 0 0 44.096 44.48l4.48-0.256a44.352 44.352 0 0 0 39.552-44.16V269.12h77.184a43.2 43.2 0 0 0 43.072-43.52l-0.256-4.672a43.2 43.2 0 0 0-42.816-38.656h-77.12V108.48A44.16 44.16 0 0 0 789.504 64l-4.544 0.256a44.288 44.288 0 0 0-39.552 44.16V182.4H668.16a43.264 43.264 0 0 0-42.944 43.392z" fill="#1E6FFF" p-id="12942"></path></svg>